<svg viewBox="0 0 64 64" xmlns="http://www.w3.org/2000/svg">
  <circle cx="32" cy="32" r="32" fill="#F7931A"/>
  <path d="M44.4337 27.5053C45.0535 23.3982 41.9378 21.5927 37.6944 20.3871L39.1971 14.8427L35.8399 14.0219L34.3773 19.4094C33.5172 19.1991 32.6372 19.0088 31.7571 18.7985L33.2197 13.3711L29.8625 12.5503L28.3598 18.0947C27.636 17.9243 26.9322 17.7539 26.2483 17.5635V17.5436L21.6033 16.372L20.7232 19.9497C20.7232 19.9497 23.2289 20.5299 23.1685 20.5698C24.6311 20.9506 24.8723 21.9124 24.8321 22.6932L23.1283 29.0088C23.2491 29.0487 23.4099 29.0687 23.5909 29.1485C23.4502 29.1086 23.2894 29.0886 23.1283 29.0487L20.7232 38.0219C20.5624 38.483 20.1607 39.1829 19.1401 38.9022C19.1804 38.9621 16.6948 38.303 16.6948 38.303L15 42.1138L19.4016 43.2356C20.1809 43.4459 20.9403 43.6562 21.6795 43.8666L20.1607 49.4708L23.5106 50.2916L25.0133 44.7471C25.9133 45.0173 26.7934 45.2676 27.6532 45.4978L26.1705 51.0223L29.5277 51.8431L31.0465 46.2588C36.5823 47.2605 40.6925 46.8182 42.3363 41.8533C43.6748 37.9026 42.2122 35.6595 39.3977 34.2174C41.5142 33.7751 43.0971 32.4326 44.4337 27.5053ZM35.6389 39.3435C34.6369 43.2943 28.4199 41.2314 26.4592 40.7292L28.48 33.2756C30.4406 33.7779 36.7029 35.1932 35.6389 39.3435ZM36.6409 27.4654C35.7189 31.0706 30.6014 29.2883 28.9777 28.8659L30.8177 22.0541C32.4414 22.4764 37.6228 23.6551 36.6409 27.4654Z" fill="white"/>
</svg>
